<svg width="161" height="24" viewBox="0 0 161 24" fill="none" xmlns="http://www.w3.org/2000/svg">
<path d="M21.4927 12.0362C21.4927 12.3457 21.4776 12.6552 21.4473 12.9637C21.4171 13.2711 21.3717 13.5776 21.3112 13.881C21.2508 14.1854 21.1751 14.4848 21.0854 14.7812C20.9957 15.0776 20.8909 15.3689 20.7729 15.6552C20.654 15.9415 20.5219 16.2207 20.3758 16.4939C20.2296 16.7671 20.0713 17.0332 19.8989 17.2903C19.7266 17.5473 19.5421 17.7963 19.3455 18.0352C19.1499 18.2752 18.9413 18.504 18.7225 18.7237C18.5038 18.9425 18.2749 19.1502 18.035 19.3467C17.7961 19.5433 17.5471 19.7278 17.2901 19.8991C17.032 20.0715 16.7669 20.2308 16.4937 20.377C16.2205 20.5221 15.9413 20.6552 15.655 20.7731C15.3687 20.8921 15.0774 20.9959 14.781 21.0856C14.4846 21.1764 14.1842 21.251 13.8808 21.3114C13.5764 21.3719 13.2709 21.4173 12.9624 21.4475C12.654 21.4778 12.3455 21.4929 12.036 21.4929C11.7255 21.4929 11.4171 21.4778 11.1086 21.4475C10.8001 21.4173 10.4947 21.3719 10.1903 21.3114C9.88684 21.251 9.58643 21.1764 9.29006 21.0856C8.99369 20.9959 8.70236 20.8921 8.41607 20.7731C8.13079 20.6552 7.85055 20.5221 7.57736 20.377C7.30418 20.2308 7.03906 20.0715 6.78099 19.8991C6.52393 19.7278 6.27595 19.5433 6.03603 19.3467C5.79712 19.1502 5.56728 18.9425 5.34853 18.7237C5.12978 18.504 4.92212 18.2752 4.72555 18.0352C4.52897 17.7963 4.3445 17.5473 4.17212 17.2903C3.99974 17.0332 3.84147 16.7671 3.6953 16.4939C3.54914 16.2207 3.41708 15.9415 3.29813 15.6552C3.18018 15.3689 3.07534 15.0776 2.98563 14.7812C2.89591 14.4848 2.8203 14.1854 2.75982 13.881C2.69934 13.5776 2.65397 13.2711 2.62373 12.9637C2.59349 12.6552 2.57837 12.3457 2.57837 12.0362C2.57837 11.7268 2.59349 11.4173 2.62373 11.1088C2.65397 10.8014 2.69934 10.4949 2.75982 10.1915C2.8203 9.88705 2.89591 9.58765 2.98563 9.29128C3.07534 8.99491 3.18018 8.70358 3.29813 8.41729C3.41708 8.131 3.54914 7.85177 3.6953 7.57858C3.84147 7.3054 3.99974 7.03927 4.17212 6.78221C4.3445 6.52415 4.52897 6.27616 4.72555 6.03624C4.92212 5.79733 5.12978 5.5685 5.34853 5.34874C5.56728 5.12999 5.79712 4.92233 6.03603 4.72576C6.27595 4.52919 6.52393 4.34471 6.78099 4.17334C7.03906 4.00096 7.30418 3.84169 7.57736 3.69552C7.85055 3.54935 8.13079 3.41729 8.41607 3.29935C8.70236 3.1804 8.99369 3.07657 9.29006 2.98685C9.58643 2.89612 9.88684 2.82153 10.1903 2.76104C10.4947 2.70056 10.8001 2.65519 11.1086 2.62495C11.4171 2.59471 11.7255 2.57959 12.036 2.57959C12.3455 2.57959 12.654 2.59471 12.9624 2.62495C13.2709 2.65519 13.5764 2.70056 13.8808 2.76104C14.1842 2.82153 14.4846 2.89612 14.781 2.98685C15.0774 3.07657 15.3687 3.1804 15.655 3.29935C15.9413 3.41729 16.2205 3.54935 16.4937 3.69552C16.7669 3.84169 17.032 4.00096 17.2901 4.17334C17.5471 4.34471 17.7961 4.52919 18.035 4.72576C18.2749 4.92233 18.5038 5.12999 18.7225 5.34874C18.9413 5.5685 19.1499 5.79733 19.3455 6.03624C19.5421 6.27616 19.7266 6.52415 19.8989 6.78221C20.0713 7.03927 20.2296 7.3054 20.3758 7.57858C20.5219 7.85177 20.654 8.131 20.7729 8.41729C20.8909 8.70358 20.9957 8.99491 21.0854 9.29128C21.1751 9.58765 21.2508 9.88705 21.3112 10.1915C21.3717 10.4949 21.4171 10.8014 21.4473 11.1088C21.4776 11.4173 21.4927 11.7268 21.4927 12.0362Z" fill="#EFF5F9"/>
<mask id="mask0_278_2174" style="mask-type:luminance" maskUnits="userSpaceOnUse" x="0" y="0" width="24" height="24">
<path d="M0 0H24V24H0V0Z" fill="white"/>
</mask>
<g mask="url(#mask0_278_2174)">
<path d="M12.0363 0C11.6411 0 11.248 0.0191534 10.8558 0.0574597C10.4637 0.0967743 10.0746 0.154234 9.6875 0.230847C9.30141 0.308468 8.91936 0.404234 8.54234 0.518145C8.16432 0.633065 7.79436 0.765121 7.42944 0.916331C7.06553 1.06754 6.70968 1.23488 6.3619 1.42137C6.01411 1.60686 5.67641 1.80948 5.34879 2.02823C5.02117 2.24698 4.70464 2.48186 4.4002 2.73186C4.09577 2.98186 3.80343 3.24698 3.5252 3.5252C3.24597 3.80444 2.98186 4.09577 2.73186 4.4002C2.48186 4.70565 2.24698 5.02117 2.02823 5.34879C1.80948 5.67742 1.60686 6.01512 1.42036 6.3619C1.23488 6.70968 1.06653 7.06553 0.915323 7.43045C0.765121 7.79436 0.632057 8.16532 0.518145 8.54234C0.403226 8.91936 0.30746 9.30141 0.230847 9.68851C0.154234 10.0746 0.095766 10.4637 0.0574597 10.8569C0.0191531 11.249 0 11.6421 0 12.0363C0 12.4304 0.0191531 12.8236 0.0574597 13.2157C0.095766 13.6079 0.154234 13.998 0.230847 14.3841C0.30746 14.7712 0.403226 15.1532 0.518145 15.5302C0.632057 15.9073 0.765121 16.2782 0.915323 16.6421C1.06653 17.0061 1.23488 17.3629 1.42036 17.7097C1.60686 18.0575 1.80948 18.3952 2.02823 18.7228C2.24698 19.0514 2.48186 19.3669 2.73186 19.6724C2.98186 19.9768 3.24597 20.2681 3.5252 20.5474C3.80343 20.8256 4.09577 21.0907 4.4002 21.3407C4.70464 21.5907 5.02117 21.8246 5.34879 22.0444C5.67641 22.2631 6.01411 22.4657 6.3619 22.6512C6.70968 22.8367 7.06553 23.005 7.42944 23.1563C7.79436 23.3075 8.16432 23.4395 8.54234 23.5544C8.91936 23.6684 9.30141 23.7641 9.6875 23.8417C10.0746 23.9184 10.4637 23.9758 10.8558 24.0141C11.248 24.0534 11.6411 24.0726 12.0363 24.0726C12.4304 24.0726 12.8236 24.0534 13.2157 24.0141C13.6079 23.9758 13.997 23.9184 14.3841 23.8417C14.7702 23.7641 15.1522 23.6684 15.5302 23.5544C15.9073 23.4395 16.2772 23.3075 16.6421 23.1563C17.0061 23.005 17.3619 22.8367 17.7097 22.6512C18.0575 22.4657 18.3952 22.2631 18.7228 22.0444C19.0504 21.8246 19.3669 21.5907 19.6714 21.3407C19.9758 21.0907 20.2681 20.8256 20.5464 20.5474C20.8256 20.2681 21.0897 19.9768 21.3397 19.6724C21.5897 19.3669 21.8246 19.0514 22.0434 18.7228C22.2631 18.3952 22.4647 18.0575 22.6512 17.7097C22.8367 17.3629 23.005 17.0061 23.1563 16.6421C23.3065 16.2782 23.4395 15.9073 23.5534 15.5302C23.6684 15.1532 23.7641 14.7712 23.8407 14.3841C23.9173 13.998 23.9758 13.6079 24.0141 13.2157C24.0524 12.8236 24.0726 12.4304 24.0726 12.0363C24.0716 11.6421 24.0524 11.249 24.0131 10.8569C23.9738 10.4647 23.9153 10.0756 23.8387 9.68952C23.7611 9.30242 23.6653 8.92036 23.5504 8.54335C23.4365 8.16633 23.3034 7.79637 23.1522 7.43246C23.001 7.06855 22.8327 6.7127 22.6472 6.36492C22.4607 6.01714 22.2581 5.68044 22.0393 5.35282C21.8206 5.0252 21.5857 4.70867 21.3357 4.40423C21.0857 4.0998 20.8216 3.80746 20.5423 3.52923C20.2641 3.25101 19.9728 2.98589 19.6684 2.73589C19.3629 2.48589 19.0474 2.25202 18.7198 2.03226C18.3921 1.81351 18.0544 1.61089 17.7067 1.4254C17.3599 1.23891 17.004 1.07056 16.6401 0.919355C16.2762 0.769153 15.9052 0.636089 15.5282 0.521169C15.1512 0.40625 14.7692 0.310484 14.3831 0.233871C13.997 0.15625 13.6069 0.0977821 13.2147 0.0594758C12.8226 0.0201612 12.4294 0 12.0363 0ZM12.8952 21.4496V18.9143C12.8952 18.8004 12.874 18.6905 12.8296 18.5847C12.7863 18.4798 12.7248 18.3871 12.6442 18.3065C12.5635 18.2258 12.4698 18.1633 12.3649 18.12C12.2591 18.0766 12.1502 18.0544 12.0363 18.0544C11.9214 18.0544 11.8125 18.0766 11.7067 18.12C11.6018 18.1633 11.5081 18.2258 11.4274 18.3065C11.3478 18.3871 11.2853 18.4798 11.2419 18.5847C11.1976 18.6905 11.1764 18.8004 11.1764 18.9143V21.4496C10.9032 21.4244 10.6331 21.3881 10.3639 21.3387C10.0948 21.2903 9.82762 21.2298 9.56351 21.1583C9.30041 21.0867 9.03932 21.003 8.78327 20.9093C8.52621 20.8145 8.2742 20.7097 8.02621 20.5927C7.77823 20.4768 7.53629 20.3498 7.2994 20.2127C7.06351 20.0756 6.83266 19.9284 6.60887 19.7712C6.38508 19.6139 6.16835 19.4476 5.95867 19.2712C5.75 19.0958 5.54839 18.9103 5.35484 18.7177C5.16129 18.5242 4.97682 18.3226 4.8004 18.1129C4.625 17.9032 4.45766 17.6865 4.30141 17.4627C4.14415 17.2389 3.99698 17.0091 3.85887 16.7722C3.72178 16.5353 3.59577 16.2934 3.47883 16.0454C3.3629 15.7984 3.25706 15.5464 3.16331 15.2893C3.06855 15.0323 2.98589 14.7722 2.91431 14.5081C2.84173 14.244 2.78226 13.9778 2.73286 13.7087C2.68448 13.4395 2.64718 13.1683 2.62198 12.8962H5.15827C5.27218 12.8962 5.38206 12.874 5.4869 12.8306C5.59274 12.7873 5.68548 12.7248 5.76613 12.6442C5.84678 12.5635 5.90827 12.4708 5.95262 12.3649C5.99597 12.2601 6.01815 12.1502 6.01815 12.0363C6.01815 11.9224 5.99597 11.8125 5.95262 11.7077C5.90827 11.6018 5.84678 11.5091 5.76613 11.4284C5.68548 11.3478 5.59274 11.2853 5.4869 11.2419C5.38206 11.1986 5.27218 11.1764 5.15827 11.1764H2.62198C2.64718 10.9042 2.68448 10.6331 2.73286 10.3639C2.78226 10.0948 2.84173 9.82863 2.91431 9.56452C2.98589 9.3004 3.06855 9.04032 3.16331 8.78327C3.25706 8.52621 3.3629 8.27419 3.47883 8.02722C3.59577 7.77924 3.72178 7.5373 3.85887 7.3004C3.99698 7.06351 4.14415 6.83367 4.30141 6.60988C4.45766 6.38609 4.625 6.16936 4.8004 5.95968C4.97682 5.75 5.16129 5.54839 5.35484 5.35484C5.54839 5.16129 5.75 4.97682 5.95867 4.80141C6.16835 4.625 6.38508 4.45867 6.60887 4.30141C6.83266 4.14415 7.06351 3.99698 7.2994 3.85988C7.53629 3.72278 7.77823 3.59577 8.02621 3.47984C8.2742 3.3629 8.52621 3.25807 8.78327 3.16331C9.03932 3.06956 9.30041 2.98589 9.56351 2.91431C9.82762 2.84274 10.0948 2.78226 10.3639 2.73387C10.6331 2.68448 10.9032 2.64819 11.1764 2.62298V5.15827C11.1764 5.27218 11.1976 5.38206 11.2419 5.4869C11.2853 5.59274 11.3478 5.68548 11.4274 5.76613C11.5081 5.84678 11.6018 5.90928 11.7067 5.95262C11.8125 5.99597 11.9214 6.01815 12.0363 6.01815C12.1502 6.01815 12.2591 5.99597 12.3649 5.95262C12.4698 5.90928 12.5635 5.84678 12.6442 5.76613C12.7248 5.68548 12.7863 5.59274 12.8296 5.4869C12.874 5.38206 12.8952 5.27218 12.8952 5.15827V2.62298C13.1683 2.64819 13.4385 2.68448 13.7077 2.73387C13.9768 2.78226 14.244 2.84274 14.5081 2.91431C14.7712 2.98589 15.0323 3.06956 15.2883 3.16331C15.5454 3.25807 15.7974 3.3629 16.0454 3.47984C16.2934 3.59577 16.5353 3.72278 16.7722 3.85988C17.0081 3.99698 17.2389 4.14415 17.4627 4.30141C17.6865 4.45867 17.9032 4.625 18.1129 4.80141C18.3216 4.97682 18.5232 5.16129 18.7167 5.35484C18.9103 5.54839 19.0948 5.75 19.2712 5.95968C19.4466 6.16936 19.6139 6.38609 19.7712 6.60988C19.9284 6.83367 20.0756 7.06351 20.2127 7.3004C20.3498 7.5373 20.4768 7.77924 20.5927 8.02722C20.7087 8.27419 20.8145 8.52621 20.9083 8.78327C21.003 9.04032 21.0857 9.3004 21.1573 9.56452C21.2298 9.82863 21.2893 10.0948 21.3387 10.3639C21.3871 10.6331 21.4244 10.9042 21.4496 11.1764H18.9133C18.7994 11.1764 18.6905 11.1986 18.5847 11.2419C18.4798 11.2853 18.3861 11.3478 18.3054 11.4284C18.2248 11.5091 18.1633 11.6018 18.119 11.7077C18.0756 11.8125 18.0544 11.9224 18.0544 12.0363C18.0544 12.1502 18.0756 12.2601 18.119 12.3649C18.1633 12.4708 18.2248 12.5635 18.3054 12.6442C18.3861 12.7248 18.4798 12.7873 18.5847 12.8306C18.6905 12.874 18.7994 12.8962 18.9133 12.8962H21.4496C21.4244 13.1683 21.3871 13.4395 21.3387 13.7087C21.2893 13.9778 21.2298 14.244 21.1573 14.5081C21.0857 14.7722 21.003 15.0323 20.9083 15.2893C20.8145 15.5464 20.7087 15.7984 20.5927 16.0454C20.4768 16.2934 20.3498 16.5353 20.2127 16.7722C20.0756 17.0091 19.9284 17.2389 19.7712 17.4627C19.6139 17.6865 19.4466 17.9032 19.2712 18.1129C19.0948 18.3226 18.9103 18.5242 18.7167 18.7177C18.5232 18.9103 18.3216 19.0958 18.1129 19.2712C17.9032 19.4476 17.6865 19.6139 17.4627 19.7712C17.2389 19.9284 17.0081 20.0756 16.7722 20.2127C16.5353 20.3498 16.2934 20.4768 16.0454 20.5927C15.7974 20.7097 15.5454 20.8145 15.2883 20.9093C15.0323 21.003 14.7712 21.0867 14.5081 21.1583C14.244 21.2298 13.9768 21.2903 13.7077 21.3387C13.4385 21.3881 13.1683 21.4244 12.8952 21.4496Z" fill="#88C9F9"/>
</g>
<path d="M14.0778 9.32749C14.2199 9.35672 14.3459 9.41821 14.4568 9.51196C14.5677 9.60571 14.6493 9.71962 14.7028 9.85369L17.1342 16.02C17.1977 16.1783 17.2108 16.3426 17.1766 16.5099C17.1413 16.6773 17.0636 16.8214 16.9427 16.9424C16.8217 17.0634 16.6776 17.142 16.5092 17.1763C16.3419 17.2116 16.1786 17.1974 16.0193 17.1349L9.85296 14.7025C9.71788 14.6491 9.60397 14.5674 9.51123 14.4565C9.41748 14.3456 9.35599 14.2196 9.32675 14.0785C9.26728 13.7942 13.7935 9.26801 14.0778 9.32749Z" fill="#007FFF"/>
<path d="M7.12928 7.13002C7.25024 7.00905 7.39541 6.93042 7.56274 6.89614C7.73008 6.86086 7.89339 6.87498 8.05266 6.93748L14.218 9.36994C14.3057 9.40623 14.3853 9.45562 14.4559 9.51812L9.51839 14.4566C9.45488 14.3851 9.40549 14.3064 9.3692 14.2187L6.93774 8.05239C6.87524 7.89312 6.86113 7.72981 6.89541 7.56248C6.93069 7.39514 7.00831 7.25098 7.12928 7.13002Z" fill="#FF5757"/>
<path d="M35.5532 19.8559V4.52124H37.3355V18.2632H44.1419V19.8559H35.5532Z" fill="#EFF5F9"/>
<path d="M55.3014 19.8559H46.7651V4.52124H55.3014V6.09382H48.5474V11.0575H54.9143V12.61H48.5474V18.2833H55.3014V19.8559Z" fill="#EFF5F9"/>
<path d="M67.3538 15.7755C67.3538 16.6848 67.128 17.4589 66.6764 18.0981C66.2268 18.7382 65.5967 19.2261 64.7852 19.5618C63.9727 19.8975 63.0191 20.0658 61.9223 20.0658C61.3417 20.0658 60.7913 20.0376 60.2731 19.9811C59.757 19.9247 59.2812 19.844 58.8457 19.7392C58.4123 19.6344 58.0322 19.5053 57.7046 19.3521V17.6424C58.2288 17.8602 58.8679 18.0618 59.6239 18.2473C60.379 18.4327 61.1693 18.5255 61.9949 18.5255C62.7631 18.5255 63.4123 18.4227 63.9425 18.215C64.4748 18.0083 64.879 17.711 65.1562 17.3239C65.4324 16.9348 65.5715 16.468 65.5715 15.9247C65.5715 15.4005 65.4556 14.963 65.2248 14.6102C64.9929 14.2553 64.6098 13.9327 64.0756 13.6424C63.5403 13.3521 62.8114 13.0436 61.8901 12.715C61.2389 12.4842 60.6653 12.2301 60.1683 11.9529C59.6733 11.6767 59.258 11.3632 58.9223 11.0134C58.5856 10.6646 58.3316 10.2594 58.1602 9.79968C57.9909 9.33798 57.9062 8.80976 57.9062 8.215C57.9062 7.39544 58.1129 6.69383 58.5272 6.11016C58.9435 5.5275 59.5201 5.08093 60.257 4.77145C60.9959 4.45996 61.8437 4.30371 62.8014 4.30371C63.6209 4.30371 64.378 4.38032 65.0715 4.53355C65.7671 4.68678 66.4062 4.89242 66.9868 5.15048L66.4304 6.68274C65.879 6.4519 65.2933 6.25936 64.6723 6.10613C64.0534 5.9529 63.4163 5.87629 62.761 5.87629C62.1018 5.87629 61.5473 5.97307 61.0957 6.16661C60.6461 6.35815 60.3024 6.62831 60.0635 6.9771C59.8266 7.3269 59.7086 7.74222 59.7086 8.22306C59.7086 8.76339 59.8215 9.21298 60.0473 9.56984C60.2752 9.92468 60.6401 10.2412 61.1401 10.5174C61.6401 10.7916 62.3024 11.0799 63.128 11.3803C64.0282 11.711 64.7933 12.0608 65.4223 12.4287C66.0534 12.7946 66.5332 13.2412 66.8618 13.7674C67.1895 14.2946 67.3538 14.964 67.3538 15.7755Z" fill="#EFF5F9"/>
<path d="M79.1444 19.8559H70.3137V4.52124H79.1444V7.18656H73.5637V10.5535H78.7532V13.2188H73.5637V17.1704H79.1444V19.8559Z" fill="#EFF5F9"/>
<path d="M94.7387 19.8559H91.025L87.4605 14.0575L83.896 19.8559H80.4121L85.5008 11.9487L80.7387 4.52124H84.3234L87.6299 10.0374L90.8678 4.52124H94.3718L89.5573 12.1261L94.7387 19.8559Z" fill="#EFF5F9"/>
<path d="M101.566 4.52124C103.543 4.52124 104.987 4.94664 105.896 5.79543C106.808 6.64523 107.263 7.81459 107.263 9.3035C107.263 9.97588 107.16 10.618 106.957 11.2309C106.755 11.8418 106.424 12.3841 105.965 12.86C105.507 13.3358 104.897 13.7128 104.134 13.989C103.373 14.2632 102.434 14.4003 101.316 14.4003H99.9204V19.8559H96.6704V4.52124H101.566ZM101.4 7.18656H99.9204V11.739H100.989C101.599 11.739 102.127 11.6583 102.574 11.497C103.019 11.3358 103.365 11.0847 103.61 10.743C103.857 10.3993 103.981 9.95874 103.981 9.42043C103.981 8.66539 103.769 8.10491 103.348 7.73898C102.928 7.37104 102.279 7.18656 101.4 7.18656Z" fill="#EFF5F9"/>
<path d="M119.545 19.8561L118.432 16.2069H112.839L111.731 19.8561H108.227L113.638 4.46094H117.614L123.045 19.8561H119.545ZM117.654 13.4811L116.545 9.91255C116.475 9.67666 116.382 9.37122 116.267 8.99723C116.151 8.62122 116.035 8.23916 115.92 7.85207C115.804 7.46497 115.711 7.12828 115.642 6.83997C115.571 7.12828 115.475 7.48311 115.352 7.90449C115.231 8.32686 115.114 8.72707 115.001 9.1061C114.89 9.48311 114.809 9.75126 114.759 9.91255L113.658 13.4811H117.654Z" fill="#EFF5F9"/>
<path d="M130.893 19.8559H127.639V7.22689H123.478V4.52124H135.054V7.22689H130.893V19.8559Z" fill="#EFF5F9"/>
<path d="M146.465 15.5981C146.465 16.5073 146.244 17.2977 145.804 17.969C145.365 18.6414 144.724 19.1585 143.88 19.5214C143.038 19.8844 142.015 20.0658 140.812 20.0658C140.281 20.0658 139.763 20.0305 139.255 19.961C138.749 19.8904 138.264 19.7896 137.8 19.6545C137.334 19.5174 136.892 19.3471 136.473 19.1424V16.1223C137.199 16.4448 137.953 16.7352 138.735 16.9932C139.519 17.2513 140.296 17.3803 141.066 17.3803C141.595 17.3803 142.022 17.3108 142.348 17.1706C142.672 17.0315 142.909 16.839 143.058 16.594C143.205 16.3501 143.279 16.0698 143.279 15.7553C143.279 15.3712 143.148 15.0436 142.888 14.7715C142.63 14.4973 142.275 14.2422 141.824 14.0053C141.374 13.7664 140.866 13.5114 140.3 13.2392C139.942 13.0698 139.554 12.8662 139.134 12.6263C138.715 12.3844 138.316 12.089 137.937 11.7392C137.56 11.3904 137.251 10.965 137.009 10.465C136.769 9.965 136.65 9.36621 136.65 8.66661C136.65 7.75028 136.86 6.96702 137.279 6.31581C137.699 5.66561 138.297 5.16863 139.078 4.82387C139.857 4.4771 140.777 4.30371 141.84 4.30371C142.638 4.30371 143.398 4.39645 144.122 4.58194C144.845 4.7654 145.602 5.03254 146.392 5.38436L145.344 7.90855C144.636 7.62427 144.003 7.40351 143.445 7.24726C142.885 7.08899 142.316 7.00936 141.735 7.00936C141.329 7.00936 140.982 7.07387 140.695 7.2029C140.409 7.33194 140.193 7.51339 140.045 7.74726C139.9 7.98113 139.828 8.25331 139.828 8.56177C139.828 8.92468 139.934 9.23113 140.146 9.48113C140.361 9.72911 140.683 9.96802 141.11 10.1989C141.539 10.4277 142.078 10.6969 142.723 11.0053C143.505 11.3763 144.175 11.7634 144.731 12.1666C145.287 12.5678 145.715 13.0396 146.013 13.5819C146.314 14.1223 146.465 14.7946 146.465 15.5981Z" fill="#EFF5F9"/>
<path d="M148.429 18.3889C148.429 18.0854 148.502 17.8707 148.647 17.7437C148.794 17.6177 148.975 17.5542 149.187 17.5542C149.407 17.5542 149.593 17.6177 149.744 17.7437C149.894 17.8707 149.97 18.0854 149.97 18.3889C149.97 18.6873 149.894 18.905 149.744 19.0421C149.593 19.1762 149.407 19.2437 149.187 19.2437C148.975 19.2437 148.794 19.1762 148.647 19.0421C148.502 18.905 148.429 18.6873 148.429 18.3889Z" fill="#EFF5F9"/>
<path d="M155.237 12.8043H153.471V19.0624H152.395V12.8043H151.136V12.2842L152.395 11.9293V11.4535C152.395 10.8598 152.483 10.3759 152.661 10.0019C152.838 9.62894 153.094 9.35273 153.431 9.17531C153.767 8.99789 154.177 8.90918 154.661 8.90918C154.935 8.90918 155.185 8.93337 155.411 8.98176C155.636 9.02813 155.836 9.08156 156.011 9.14305L155.733 9.98982C155.585 9.94446 155.419 9.90112 155.233 9.86079C155.05 9.81845 154.864 9.79628 154.677 9.79628C154.266 9.79628 153.961 9.92934 153.766 10.1955C153.569 10.4616 153.471 10.8769 153.471 11.4414V11.9616H155.237V12.8043Z" fill="#EFF5F9"/>
<path d="M159.766 11.8325C159.908 11.8325 160.057 11.8406 160.213 11.8567C160.368 11.8708 160.508 11.891 160.629 11.9172L160.491 12.9132C160.375 12.8839 160.246 12.8607 160.104 12.8446C159.961 12.8265 159.827 12.8164 159.701 12.8164C159.416 12.8164 159.147 12.8749 158.895 12.9898C158.642 13.1027 158.42 13.267 158.229 13.4817C158.041 13.6944 157.893 13.9515 157.786 14.2519C157.678 14.5533 157.624 14.887 157.624 15.2519V19.0624H156.54V11.9616H157.435L157.552 13.268H157.596C157.743 13.0049 157.921 12.764 158.129 12.5462C158.335 12.3285 158.576 12.1551 158.85 12.0261C159.124 11.897 159.429 11.8325 159.766 11.8325Z" fill="#EFF5F9"/>
</svg>
